<svg xmlns="http://www.w3.org/2000/svg" viewBox="0 0 512 512">
  <defs>
    <linearGradient id="bg" x1="0%" y1="0%" x2="100%" y2="100%">
      <stop offset="0%" style="stop-color:#ff7940"/>
      <stop offset="100%" style="stop-color:#ff6b35"/>
    </linearGradient>
  </defs>
  <rect width="512" height="512" rx="96" fill="url(#bg)"/>
  <g transform="translate(256, 240)" fill="white">
    <!-- Music note -->
    <path d="M-40 60 L-40-80 L80-120 L80-20 C80-40 60-50 40-40 C20-30 20-10 40 0 C60 10 80 0 80-20 L80-20 L80-120 L-40-80 L-40 20 C-40 0 -60-10 -80 0 C-100 10 -100 30 -80 40 C-60 50 -40 40 -40 20 Z" opacity="0.95"/>
  </g>
  <!-- U letter -->
  <text x="256" y="420" text-anchor="middle" font-family="Inter,Arial,sans-serif" font-size="120" font-weight="800" fill="white" opacity="0.9">U</text>
</svg>
